<?xml version="1.0" standalone="no"?>
<!DOCTYPE svg PUBLIC "-//W3C//DTD SVG 20010904//EN"
 "http://www.w3.org/TR/2001/REC-SVG-20010904/DTD/svg10.dtd">
<svg version="1.0" xmlns="http://www.w3.org/2000/svg"
 width="867.000000pt" height="867.000000pt" viewBox="0 0 867.000000 867.000000"
 preserveAspectRatio="xMidYMid meet">
<metadata>
Created by potrace 1.11, written by Peter Selinger 2001-2013
</metadata>
<g transform="translate(0.000000,867.000000) scale(0.100000,-0.100000)"
fill="#000000" stroke="none">
<path d="M4895 7928 c-72 -42 -124 -206 -130 -413 -5 -180 24 -312 111 -490
101 -208 218 -361 490 -644 62 -64 127 -132 145 -151 182 -192 245 -288 244
-370 0 -32 -4 -36 -47 -52 -26 -10 -58 -20 -70 -22 -109 -22 -143 -27 -208
-33 -118 -10 -327 -5 -445 11 -16 2 -66 8 -110 11 -44 4 -93 9 -110 11 -203
22 -458 22 -573 -1 -11 -2 -36 -6 -57 -9 -20 -4 -42 -9 -48 -13 -6 -4 -95 -8
-197 -9 -102 -1 -203 -4 -225 -7 -22 -3 -65 -9 -95 -13 -55 -6 -72 -9 -120
-19 -14 -2 -40 -7 -59 -10 -19 -3 -37 -8 -41 -10 -4 -2 -22 -7 -41 -10 -113
-20 -361 -106 -539 -188 -41 -19 -100 -43 -130 -55 -215 -79 -406 -205 -669
-440 -22 -20 -180 -169 -341 -322 -100 -95 -143 -130 -192 -159 -29 -17 -64
-41 -78 -54 -64 -57 -176 -207 -236 -316 -48 -86 -116 -180 -161 -223 -36 -34
-40 -36 -84 -29 -79 13 -338 4 -417 -13 -75 -16 -174 -54 -180 -68 -2 -4 -8
-8 -13 -8 -6 0 -25 -17 -44 -37 -54 -59 -64 -124 -36 -230 13 -46 109 -211
159 -273 168 -205 385 -331 504 -291 32 10 32 10 -16 -33 -48 -42 -76 -60
-146 -90 -198 -84 -236 -114 -299 -232 -69 -130 -123 -286 -215 -619 -62 -223
-82 -285 -129 -400 l-42 -100 1 -165 c0 -232 32 -384 107 -508 84 -140 226
-115 370 66 81 101 129 209 227 505 49 147 106 303 126 345 115 241 270 381
499 452 59 18 151 37 223 45 44 6 259 6 322 1 52 -4 170 22 250 55 99 41 299
175 404 272 13 12 48 42 76 66 29 25 58 50 64 56 22 22 167 135 174 136 50 5
286 114 462 213 36 20 76 42 90 49 14 6 27 15 30 19 21 28 380 171 482 192 13
3 39 10 58 16 19 6 42 13 50 15 8 1 44 11 80 20 36 9 74 19 85 21 11 2 32 6
47 10 15 3 29 5 30 4 2 -1 15 3 29 8 14 6 41 13 60 16 19 3 45 8 59 11 30 7
44 10 175 35 55 11 114 22 130 25 17 2 41 7 55 10 37 8 125 22 185 29 17 3 44
7 60 10 117 20 341 40 435 38 36 0 108 -12 160 -25 52 -14 113 -28 135 -31 22
-4 65 -11 95 -16 30 -5 75 -12 100 -15 25 -3 68 -7 95 -11 28 -3 79 -9 114
-14 35 -5 67 -8 70 -8 3 1 29 -2 56 -6 28 -4 66 -9 85 -12 100 -13 235 -39
320 -61 52 -14 105 -28 118 -30 12 -3 25 -9 28 -14 3 -5 12 -9 20 -9 9 0 59
-22 112 -49 53 -26 131 -63 172 -80 41 -18 84 -36 95 -41 94 -41 247 -79 327
-81 105 -3 169 29 199 101 17 39 19 138 4 174 -26 61 -111 158 -231 263 -11
10 -27 29 -33 42 l-13 23 62 -6 c35 -4 71 -11 81 -17 11 -5 19 -8 19 -5 0 2
17 0 38 -5 20 -5 46 -12 57 -14 11 -3 47 -12 80 -20 33 -9 69 -17 79 -20 11
-2 40 -11 66 -20 26 -9 58 -18 71 -21 33 -7 41 -9 64 -17 21 -6 46 -12 130
-27 28 -5 91 -7 141 -6 72 2 102 8 147 29 58 26 116 79 143 130 31 58 -10 180
-75 222 -52 35 -108 44 -260 43 -149 -1 -181 4 -256 37 -27 12 -70 29 -95 39
-25 10 -53 22 -63 27 -73 38 -281 110 -372 128 -33 7 -82 17 -110 23 -110 23
-164 79 -144 150 12 47 94 127 162 161 122 60 147 67 256 73 173 10 272 85
316 239 39 132 -9 427 -88 548 -9 14 -17 29 -17 33 0 4 -15 27 -33 53 -18 25
-48 73 -66 106 -174 311 -500 548 -932 678 -90 27 -117 40 -127 58 -13 25 -71
150 -182 394 -82 180 -165 339 -245 474 -66 112 -186 277 -216 299 -10 7 -24
18 -31 25 -24 23 -147 97 -211 126 -217 100 -413 113 -530 36 -30 -20 -41 -23
-57 -15 -11 6 -60 61 -109 124 -147 185 -212 231 -276 194z"/>
</g>
</svg>
